<svg width="580" height="324" viewBox="0 0 580 324" fill="none" xmlns="http://www.w3.org/2000/svg">
<mask id="mask0_5_84" style="mask-type:alpha" maskUnits="userSpaceOnUse" x="0" y="0" width="580" height="324">
<rect width="580" height="324" fill="#D9D9D9"/>
</mask>
<g mask="url(#mask0_5_84)">
<path d="M55 101C55 93.8203 60.8203 88 68 88H170.966C175.89 88 180.391 90.782 182.593 95.1862L202.093 134.186C206.415 142.83 200.13 153 190.466 153H68C60.8203 153 55 147.18 55 140V101Z" fill="#2492E6"/>
<path d="M525.5 101C525.5 93.8203 519.68 88 512.5 88H409.534C404.61 88 400.109 90.782 397.907 95.1862L378.407 134.186C374.085 142.83 380.37 153 390.034 153H512.5C519.68 153 525.5 147.18 525.5 140V101Z" fill="#2492E6"/>
<path d="M254.139 239.002C257.208 245.182 252.709 252.48 245.809 252.48H74.71C63.6645 252.48 54.71 243.526 54.71 232.48V193.787C54.71 182.742 63.6644 173.787 74.71 173.787H209.35C216.944 173.787 223.884 178.089 227.262 184.89L254.139 239.002ZM505.29 173.787C516.336 173.787 525.29 182.742 525.29 193.787V232.48C525.29 243.526 516.336 252.48 505.29 252.48H334.117C327.216 252.48 322.717 245.182 325.787 239.002L352.664 184.89C356.042 178.089 362.982 173.787 370.576 173.787H505.29Z" fill="#2492E6"/>
<path d="M254.139 239.002C257.208 245.182 252.709 252.48 245.809 252.48H74.71C63.6645 252.48 54.71 243.526 54.71 232.48V193.787C54.71 182.742 63.6644 173.787 74.71 173.787H209.35C216.944 173.787 223.884 178.089 227.262 184.89L254.139 239.002ZM505.29 173.787C516.336 173.787 525.29 182.742 525.29 193.787V232.48C525.29 243.526 516.336 252.48 505.29 252.48H334.117C327.216 252.48 322.717 245.182 325.787 239.002L352.664 184.89C356.042 178.089 362.982 173.787 370.576 173.787H505.29Z" fill="#2492E6"/>
<path d="M325.997 187.058C310.378 218.525 302.568 234.259 290.167 234.259C277.766 234.259 269.957 218.525 254.338 187.058L211.503 100.758C198.643 74.8495 192.213 61.8952 198.079 52.4347C203.945 42.9741 218.407 42.9741 247.332 42.9741L333.003 42.9741C361.927 42.9741 376.39 42.9741 382.256 52.4347C388.122 61.8952 381.692 74.8495 368.832 100.758L325.997 187.058Z" fill="url(#paint0_linear_5_84)"/>
<circle cx="290.47" cy="271.59" r="27.2568" fill="#2492E6"/>
</g>
<defs>
<linearGradient id="paint0_linear_5_84" x1="337.543" y1="-7.66322" x2="258.558" y2="289.041" gradientUnits="userSpaceOnUse">
<stop stop-color="#EDEDF1"/>
<stop offset="0.836066" stop-color="#2492E6"/>
</linearGradient>
</defs>
</svg>
